<svg xmlns="http://www.w3.org/2000/svg" viewBox="0 0 342 342"><defs><style>.cls-1{fill:#fff;}</style></defs><title>adobe</title><g id="Layer_2" data-name="Layer 2"><g id="Layer_1-2" data-name="Layer 1"><path d="M171,17A154,154,0,0,1,279.89,279.89,154,154,0,1,1,62.11,62.11,153,153,0,0,1,171,17m0-17A171,171,0,1,0,342,171,171,171,0,0,0,171,0Z"/><path class="cls-1" d="M233,244c-11-.15-7.2.23-21.81,0C211,244,194,202,194,202c-39.6-.55-34.72-.54-64-1L173,98Z"/><path class="cls-1" d="M279.17,244.92a131,131,0,0,0-93.5-204.11"/><path class="cls-1" d="M60.7,241.71A131,131,0,0,1,157,40.74"/></g></g></svg>