<svg xmlns="http://www.w3.org/2000/svg" xmlns:xlink="http://www.w3.org/1999/xlink" viewBox="0 0 88.76 131.79"><defs><style>.cls-1{isolation:isolate;}.cls-2{fill:url(#åçûìßííûé_ãðàäèåíò_1615);}.cls-3{fill:#898989;}.cls-4{fill:#fff;opacity:0.4;mix-blend-mode:screen;}.cls-5{opacity:0.8;fill:url(#åçûìßííûé_ãðàäèåíò_403);}</style><linearGradient id="åçûìßííûé_ãðàäèåíò_1615" x1="133.97" y1="95.82" x2="178.35" y2="7.05" gradientTransform="translate(110.66 -81.31) rotate(90)" gradientUnits="userSpaceOnUse"><stop offset="0.64" stop-color="#f3f4f4"/><stop offset="1" stop-color="#edeeee"/></linearGradient><linearGradient id="åçûìßííûé_ãðàäèåíò_403" x1="-99.29" y1="-279.4" x2="-92.08" y2="-215.2" gradientTransform="matrix(0.36, -0.66, 0.31, 0.75, 157.57, 135.65)" gradientUnits="userSpaceOnUse"><stop offset="0" stop-color="#ff7171"/><stop offset="0.48" stop-color="#ff8e8e"/><stop offset="0.98" stop-color="#ff7171"/></linearGradient></defs><title>blocNote3</title><g class="cls-1"><g id="Layer_2" data-name="Layer 2"><g id="_ëîé_1" data-name="‘ëîé_1"><g id="_01" data-name="01"><path class="cls-2" d="M0,7.08a2.66,2.66,0,0,1,0,3.28V131.79H88.76V3.05H81.21l-.47.8-.59,2.89a3.3,3.3,0,0,1,.7,1.93,2.59,2.59,0,0,1-4.36,1.84,2.59,2.59,0,0,1,1.84-4.36c.08,0,.32-2.4.32-2.4l-.31-.7H63.85l-.17,3.53a2.64,2.64,0,0,1,.44,3.93,2.59,2.59,0,0,1-4.36-1.84,2.53,2.53,0,0,1,1.31-2.21L61,3.05H45.11l.6,3.16a2.9,2.9,0,0,1,2.35.6,2.61,2.61,0,0,1-3.68,3.7,2.8,2.8,0,0,1-.53-2.67l-.36-3.13L42.3,3.05h-10L31.9,6.84A2.66,2.66,0,0,1,32,10.51a2.59,2.59,0,0,1-4.36-1.84,2.49,2.49,0,0,1,.88-1.91l.09-3.71H14.86L15,4.23c.36.19,1,2.7,1.23,3A2.72,2.72,0,0,1,16,10.51,2.59,2.59,0,0,1,11.6,8.67a2.52,2.52,0,0,1,1-2c.21-.15-.54-2.26-.38-2.57l-.27-1H.47L0,5.52Z"/><rect class="cls-3" x="2.48" y="123.7" width="80.62" height="0.06"/><rect class="cls-3" x="2.48" y="117.67" width="80.62" height="0.06"/><rect class="cls-3" x="2.48" y="111.64" width="80.62" height="0.06"/><rect class="cls-3" x="2.48" y="105.61" width="80.62" height="0.06"/><rect class="cls-3" x="2.48" y="99.58" width="80.62" height="0.06"/><rect class="cls-3" x="2.48" y="93.55" width="80.62" height="0.06"/><rect class="cls-3" x="2.48" y="87.51" width="80.62" height="0.06"/><rect class="cls-3" x="2.48" y="81.48" width="80.62" height="0.06"/><rect class="cls-3" x="2.48" y="75.45" width="80.62" height="0.06"/><rect class="cls-3" x="2.48" y="69.42" width="80.62" height="0.06"/><rect class="cls-3" x="2.48" y="63.39" width="80.62" height="0.06"/><rect class="cls-3" x="2.48" y="57.36" width="80.62" height="0.06"/><rect class="cls-3" x="2.48" y="51.33" width="80.62" height="0.06"/><rect class="cls-3" x="2.48" y="45.3" width="80.62" height="0.06"/><rect class="cls-3" x="2.48" y="39.27" width="80.62" height="0.06"/><rect class="cls-3" x="2.48" y="33.24" width="80.62" height="0.06"/><rect class="cls-3" x="2.48" y="27.21" width="80.62" height="0.06"/><rect class="cls-3" x="2.48" y="21.17" width="80.62" height="0.06"/><rect class="cls-3" x="2.48" y="15.14" width="80.62" height="0.06"/><g id="red_2" data-name="red 2"><polygon class="cls-4" points="25.51 8.56 26.1 7.45 25.52 6.34 26.11 5.07 25.53 3.96 26.12 3.01 25.54 1.9 26.13 1.11 25.55 0 61.45 0.05 60.75 1.24 61.44 2.03 60.74 3.37 61.43 4.33 60.76 5.36 61.42 6.31 60.79 7.5 61.41 8.61 25.51 8.56"/><polygon class="cls-5" points="25.52 8.96 26.11 7.86 25.53 6.74 26.12 5.48 25.54 4.37 26.13 3.42 25.55 2.31 26.14 1.52 25.57 0.41 61.47 0.46 60.76 1.64 61.45 2.44 60.75 3.78 61.44 4.73 60.78 5.76 61.43 6.71 60.8 7.9 61.42 9.01 25.52 8.96"/></g></g></g></g></g></svg>