<svg xmlns="http://www.w3.org/2000/svg" viewBox="0 0 342 342"><defs><style>.cls-1{fill:#fff;}</style></defs><title>html</title><g id="Layer_2" data-name="Layer 2"><g id="Layer_1-2" data-name="Layer 1"><path d="M171,17A154,154,0,0,1,279.89,279.89,154,154,0,1,1,62.11,62.11,153,153,0,0,1,171,17m0-17A171,171,0,1,0,342,171,171,171,0,0,0,171,0Z"/><path class="cls-1" d="M156.39,261.82l-21.68-6.29a4.27,4.27,0,0,1-2.91-5.29L180.31,83.11a4.27,4.27,0,0,1,5.3-2.91l21.68,6.29a4.27,4.27,0,0,1,2.91,5.3L161.69,258.91A4.26,4.26,0,0,1,156.39,261.82Zm-40.52-39.88,15.46-16.49a4.26,4.26,0,0,0-.28-6.11L98.85,171l32.2-28.33a4.23,4.23,0,0,0,.28-6.11l-15.46-16.49a4.27,4.27,0,0,0-6-.18l-51.22,48a4.24,4.24,0,0,0,0,6.22l51.22,48a4.22,4.22,0,0,0,6-.18Zm116.3.22,51.22-48a4.24,4.24,0,0,0,0-6.22l-51.22-48a4.31,4.31,0,0,0-6,.17l-15.46,16.5a4.26,4.26,0,0,0,.28,6.11L243.15,171,211,199.34a4.23,4.23,0,0,0-.28,6.11l15.46,16.49a4.26,4.26,0,0,0,6,.22Z"/></g></g></svg>