<svg xmlns="http://www.w3.org/2000/svg" viewBox="0 0 342 342"><defs><style>.cls-1{fill:#fff;}</style></defs><title>jsts</title><g id="Layer_2" data-name="Layer 2"><g id="Layer_1-2" data-name="Layer 1"><path d="M171,17A154,154,0,0,1,279.89,279.89,154,154,0,1,1,62.11,62.11,153,153,0,0,1,171,17m0-17A171,171,0,1,0,342,171,171,171,0,0,0,171,0Z"/><path class="cls-1" d="M29.48,186.87l9.91-7.37c2.39,4.44,5.7,6.45,9,6.45,5.22,0,8-2.67,8-11.27V132.83H71v43.06c0,12.42-6.45,22.65-20.7,22.65C40.44,198.54,34,194.69,29.48,186.87Z"/><path class="cls-1" d="M81.73,189.22l8.38-10c4.59,4,10.54,6.74,15.85,6.74,6.09,0,9.07-2.4,9.07-6.23,0-4.06-3.67-5.36-9.31-7.68l-8.38-3.58c-6.69-2.72-13-8.21-13-17.58,0-10.7,9.55-19.23,23-19.23a29.83,29.83,0,0,1,20.76,8.45l-7.37,9.19c-4.25-3.26-8.29-5-13.39-5s-8.23,2.1-8.23,5.79c0,3.95,4.22,5.39,9.85,7.63l8.22,3.33c7.88,3.19,12.8,8.44,12.8,17.56,0,10.71-8.93,20-24.31,20A35.53,35.53,0,0,1,81.73,189.22Z"/><path class="cls-1" d="M174.34,127.07h9.5L163.91,213.2h-9.5Z"/><path class="cls-1" d="M226.73,145.07H209V132.83h50.11v12.24H241.32v52.29H226.73Z"/><path class="cls-1" d="M262.51,189.22l8.37-10c4.59,4,10.54,6.74,15.85,6.74,6.09,0,9.07-2.4,9.07-6.23,0-4.06-3.67-5.36-9.3-7.68l-8.39-3.58c-6.68-2.72-13-8.21-13-17.58,0-10.7,9.55-19.23,23-19.23a29.83,29.83,0,0,1,20.76,8.45l-7.36,9.19c-4.26-3.26-8.3-5-13.4-5s-8.23,2.1-8.23,5.79c0,3.95,4.22,5.39,9.86,7.63l8.22,3.33c7.88,3.19,12.8,8.44,12.8,17.56,0,10.71-8.94,20-24.31,20A35.51,35.51,0,0,1,262.51,189.22Z"/></g></g></svg>