<svg xmlns="http://www.w3.org/2000/svg" viewBox="0 0 342 342"><defs><style>.cls-1{fill:#fff;}</style></defs><title>react</title><g id="Layer_2" data-name="Layer 2"><g id="Layer_1-2" data-name="Layer 1"><path class="cls-1" d="M261.6,127.11q-4.52-1.5-9.05-2.85c.51-2.06.95-4.13,1.4-6.2,6.87-33.29,2.35-60-12.9-68.87-14.69-8.44-38.66.33-62.9,21.45-2.4,2.07-4.75,4.24-7,6.42-1.51-1.45-3.07-2.9-4.64-4.3-25.41-22.57-50.89-32.06-66.14-23.18-14.63,8.49-19,33.68-12.84,65.19.61,3.13,1.28,6.2,2.06,9.33-3.57,1-7.09,2.12-10.39,3.29C49.39,137.73,28,154,28,170.91c0,17.43,22.79,34.91,53.79,45.52,2.52.84,5,1.68,7.6,2.4-.84,3.36-1.56,6.65-2.23,10.06-5.87,31-1.29,55.58,13.35,64,15.08,8.72,40.44-.22,65.13-21.84,2-1.73,3.91-3.52,5.86-5.42,2.46,2.41,5,4.7,7.6,6.93C203,293.13,226.64,301.45,241.22,293c15.08-8.72,20-35.14,13.62-67.31q-.75-3.69-1.67-7.55c1.79-.5,3.52-1.06,5.25-1.62C290.65,205.88,314,188.61,314,170.91c0-16.93-22-33.35-52.4-43.8ZM186,79.69c20.78-18.1,40.16-25.19,49-20.11,9.45,5.42,13.08,27.31,7.15,56.08-.39,1.9-.78,3.74-1.28,5.59a285.29,285.29,0,0,0-37.59-5.92,282.72,282.72,0,0,0-23.8-29.66C181.67,83.6,183.79,81.64,186,79.69ZM121.4,199.9c2.85,4.86,5.75,9.72,8.82,14.47a254.34,254.34,0,0,1-25.92-4.19,259.61,259.61,0,0,1,9.11-24.86c2.57,4.91,5.19,9.77,8,14.58Zm-16.93-67.2c8-1.79,16.59-3.24,25.47-4.36-3,4.64-5.86,9.39-8.6,14.19s-5.42,9.61-7.93,14.52c-3.52-8.32-6.48-16.47-8.94-24.35Zm15.31,38.49c3.68-7.71,7.71-15.25,11.95-22.68s8.83-14.64,13.63-21.73q12.57-.93,25.64-1c8.71,0,17.32.33,25.64,1q7.13,10.56,13.57,21.62c4.3,7.37,8.33,14.91,12.12,22.56q-5.61,11.56-12.06,22.79c-4.25,7.43-8.77,14.64-13.52,21.79-8.32.61-17,.89-25.75.89s-17.26-.28-25.47-.78q-7.29-10.64-13.74-21.78c-4.3-7.43-8.27-15-12-22.68Zm100.88,28.6c2.85-4.92,5.53-9.89,8.15-14.92a255.69,255.69,0,0,1,9.44,24.75A247.18,247.18,0,0,1,212,214.09c3-4.7,5.87-9.5,8.66-14.3Zm8-42.74c-2.62-4.91-5.3-9.83-8.1-14.63S215,133,212.06,128.34a259.34,259.34,0,0,1,25.64,4.47A246.2,246.2,0,0,1,228.7,157.05ZM171.11,94.21a244.37,244.37,0,0,1,16.54,20c-11.06-.5-22.18-.5-33.24,0C159.88,107,165.53,100.3,171.11,94.21ZM106.31,60c9.39-5.47,30.22,2.35,52.18,21.79,1.39,1.22,2.79,2.57,4.24,3.91a282.93,282.93,0,0,0-24,29.66,292.53,292.53,0,0,0-37.54,5.81c-.72-2.85-1.34-5.76-2-8.66-5.25-27-1.79-47.43,7-52.51ZM92.63,207.22c-2.35-.67-4.64-1.4-6.93-2.18-11.9-3.75-25.41-9.67-35.19-17.43A25.06,25.06,0,0,1,40,170.91c0-10.23,17.65-23.3,43.12-32.18,3.19-1.12,6.43-2.12,9.67-3.07a298.74,298.74,0,0,0,13.68,35.53A304.65,304.65,0,0,0,92.63,207.22ZM157.76,262a102.33,102.33,0,0,1-31.5,19.72,24.7,24.7,0,0,1-19.72.72C97.66,277.26,94,257.54,99,231c.61-3.13,1.28-6.25,2.06-9.33A280,280,0,0,0,139,227.16,298.11,298.11,0,0,0,163.12,257c-1.78,1.73-3.57,3.4-5.36,5Zm13.69-13.58a264.09,264.09,0,0,1-16.93-20.27c5.36.22,10.89.33,16.48.33,5.75,0,11.4-.11,17-.39A241.13,241.13,0,0,1,171.45,248.38Zm73,16.76a24.89,24.89,0,0,1-9.22,17.49c-8.88,5.13-27.82-1.57-48.26-19.11-2.35-2-4.7-4.19-7.1-6.42a276,276,0,0,0,23.57-29.94,274.9,274.9,0,0,0,38.1-5.87c.56,2.29,1.06,4.58,1.51,6.82a101.9,101.9,0,0,1,1.4,37Zm10.16-60c-1.56.51-3.13,1-4.75,1.46a283.42,283.42,0,0,0-14.24-35.64,281.72,281.72,0,0,0,13.68-35.14c2.91.84,5.7,1.73,8.38,2.63,26,8.93,44.3,22.23,44.3,32.4C302,181.74,282.5,195.88,254.62,205.09ZM171,196.71a25.58,25.58,0,1,0-25.58-25.58A25.58,25.58,0,0,0,171,196.71Z"/><path d="M171,17A154,154,0,0,1,279.89,279.89,154,154,0,1,1,62.11,62.11,153,153,0,0,1,171,17m0-17A171,171,0,1,0,342,171,171,171,0,0,0,171,0Z"/></g></g></svg>