<svg xmlns="http://www.w3.org/2000/svg" viewBox="0 0 342 342"><defs><style>.cls-1{fill:#fff;}</style></defs><title>sql</title><g id="Layer_2" data-name="Layer 2"><g id="Layer_1-2" data-name="Layer 1"><path d="M171,17A154,154,0,0,1,279.89,279.89,154,154,0,1,1,62.11,62.11,153,153,0,0,1,171,17m0-17A171,171,0,1,0,342,171,171,171,0,0,0,171,0Z"/><path class="cls-1" d="M264.62,96.57v19.11c0,16.84-41.93,30.57-93.62,30.57s-93.63-13.73-93.63-30.57V96.57C77.37,79.73,119.31,66,171,66S264.62,79.73,264.62,96.57Zm0,43v43c0,16.84-41.93,30.58-93.62,30.58s-93.63-13.74-93.63-30.58v-43c20.12,13.86,56.94,20.3,93.63,20.3S244.51,153.42,264.62,139.56Zm0,66.88v43c0,16.84-41.93,30.57-93.62,30.57s-93.63-13.73-93.63-30.57v-43c20.12,13.85,56.94,20.3,93.63,20.3S244.51,220.29,264.62,206.44Z"/></g></g></svg>