<svg xmlns="http://www.w3.org/2000/svg" viewBox="0 0 342 405"><defs><style>.cls-1{font-size:57px;font-family:MyriadPro-Regular, Myriad Pro;}.cls-1,.cls-4{fill:#fff;}.cls-2{letter-spacing:-0.01em;}.cls-3{letter-spacing:0.01em;}</style></defs><title>directus</title><g id="Layer_2" data-name="Layer 2"><g id="Layer_1-2" data-name="Layer 1"><path d="M171,17A154,154,0,0,1,279.89,279.89,154,154,0,1,1,62.11,62.11,153,153,0,0,1,171,17m0-17A171,171,0,1,0,342,171,171,171,0,0,0,171,0Z"/><text class="cls-1" transform="translate(72.48 384.47)">Di<tspan class="cls-2" x="51.3" y="0">r</tspan><tspan x="69.37" y="0">e</tspan><tspan class="cls-3" x="97.92" y="0">c</tspan><tspan x="124.2" y="0">tus</tspan></text><path class="cls-4" d="M250.78,171.41a18.45,18.45,0,0,1-3.16-1,7.39,7.39,0,0,1-2.25-1.54c.62-5.4,0-10.09.52-15.39,2-20.59,15-14.07,26.61-17.44,7.24-2,14.48-6.22,16.31-14.78A149.87,149.87,0,0,0,262.3,96.88c-31.51-22.42-72.69-31.4-110.11-25.18a56.51,56.51,0,0,0,24.74,22.94,34.8,34.8,0,0,1-18.83-6.49c-2.54,1-7.65,3-10.09,4.24a56.32,56.32,0,0,0,73.31,4.1c-.11.18-2,3.15-4.39,15.48-5.2,26.31-20.19,24.27-38.75,17.64-38.53-14-59.74-1-79-27.53a17.66,17.66,0,0,0-.11,30.8c2.89-3.85,4.2-4.94,9.24-4.94-7.81,4.43-8.74,8.3-12.1,19-4.07,12.95-2.34,26.21-21.4,29.67-10.1.51-9.89,7.34-13.56,17.54-4.59,13.26-10.71,18.55-22.64,31.09,4.9,5.92,10,6.64,15.2,4.49,10.7-4.49,19-18.35,26.7-27.32,8.67-10,29.47-5.72,45.17-15.51,10.81-6.62,16.11-15.59,9-30.78a30.07,30.07,0,0,1,7.75,18.36c18.15-2.36,42.42,19.77,64.53,23.44a39.59,39.59,0,0,1-5.39-9.07,34.2,34.2,0,0,1-2.85-16.62c2,12.13,14.26,27.72,33.94,29.16a43.83,43.83,0,0,0,16.21-1.95c6.84-2,13.16-4.68,20.7-3.26a21.33,21.33,0,0,1,14.07,8.67c4.9,7.13,15.59,8.67,20.39-.1C293.2,176.51,263.42,174.67,250.78,171.41Z"/></g></g></svg>