<svg xmlns="http://www.w3.org/2000/svg" viewBox="0 0 342 405"><defs><style>.cls-1{font-size:57px;font-family:MyriadPro-Regular, Myriad Pro;}.cls-1,.cls-4{fill:#fff;}.cls-2{letter-spacing:-0.03em;}.cls-3{letter-spacing:-0.01em;}</style></defs><title>firebase</title><g id="Layer_2" data-name="Layer 2"><g id="Layer_1-2" data-name="Layer 1"><path d="M171,17A154,154,0,0,1,279.89,279.89,154,154,0,1,1,62.11,62.11,153,153,0,0,1,171,17m0-17A171,171,0,1,0,342,171,171,171,0,0,0,171,0Z"/><text class="cls-1" transform="translate(72.36 384.47)"><tspan class="cls-2">F</tspan><tspan x="26.28" y="0">i</tspan><tspan class="cls-3" x="39.62" y="0">r</tspan><tspan x="57.68" y="0">ebase</tspan></text><path class="cls-4" d="M252,239.34l-73.57,40.87s-5.2,2.23-8.17,2.23-8.18-2.23-8.18-2.23L90,239.34,117.5,62.48s0-2.23,3-3A4.13,4.13,0,0,1,124.93,61l26,48.3-43.11,95.12,44.45-83.57L169,139l-13.79-23.67,11.7-22s1.49-2.23,3.72-2.23,3.71,2.23,4.46,3.71,17.46,31.59,17.46,31.59l-74.31,84L223.39,106a4.19,4.19,0,0,1,4.46,0,4.81,4.81,0,0,1,2.23,3.72Z"/></g></g></svg>