<svg xmlns="http://www.w3.org/2000/svg" viewBox="0 0 342 405"><defs><style>.cls-1{font-size:57px;font-family:MyriadPro-Regular, Myriad Pro;}.cls-1,.cls-3{fill:#fff;}.cls-2{letter-spacing:0.02em;}</style></defs><title>html</title><g id="Layer_2" data-name="Layer 2"><g id="Layer_1-2" data-name="Layer 1"><path d="M171,17A154,154,0,0,1,279.89,279.89,154,154,0,1,1,62.11,62.11,153,153,0,0,1,171,17m0-17A171,171,0,1,0,342,171,171,171,0,0,0,171,0Z"/><text class="cls-1" transform="translate(112.03 384.47)"><tspan class="cls-2">H</tspan><tspan x="38.08" y="0">tml</tspan></text><path class="cls-3" d="M77.57,78l17,192.6L170.76,296l76.69-25.4,17-192.6Zm150,62.24H138.11l2,24h85.45l-6.62,72.21-47.64,13.14v.14h-.53l-48-13.28-2.92-36.89H143l1.7,18.54,26,7.06,26.13-7.06,2.92-30.26H118.59L112.36,117H229.68Z"/></g></g></svg>