<svg xmlns="http://www.w3.org/2000/svg" viewBox="0 0 342 405"><defs><style>.cls-1{font-size:57px;font-family:MyriadPro-Regular, Myriad Pro;}.cls-1,.cls-3{fill:#fff;}.cls-2{letter-spacing:0em;}</style></defs><title>sass</title><g id="Layer_2" data-name="Layer 2"><g id="Layer_1-2" data-name="Layer 1"><path d="M171,17A154,154,0,0,1,279.89,279.89,154,154,0,1,1,62.11,62.11,153,153,0,0,1,171,17m0-17A171,171,0,1,0,342,171,171,171,0,0,0,171,0Z"/><text class="cls-1" transform="translate(120.56 384.47)"><tspan class="cls-2">S</tspan><tspan x="28.27" y="0">ass</tspan></text><path class="cls-3" d="M272.21,169a54.54,54.54,0,0,0-24.16,5.62c-2.46-5-5-9.29-5.42-12.54-.5-3.79-1-6-.46-10.54s3.21-10.87,3.17-11.33-.58-2.75-6-2.79-10,1-10.53,2.46a51,51,0,0,0-2.21,8c-1,4.87-10.74,22.28-16.28,31.36-1.83-3.54-3.37-6.66-3.71-9.16-.5-3.79-1-6-.46-10.54s3.21-10.87,3.17-11.33-.58-2.75-6-2.79-10,1-10.54,2.46-1.13,4.74-2.21,8-14.11,32.2-17.53,39.74c-1.75,3.83-3.24,6.91-4.33,9-.16.33-.29.54-.37.7.12-.2.21-.41.21-.33-.92,1.79-1.46,2.79-1.46,2.79v0c-.71,1.34-1.5,2.54-1.88,2.54s-.79-3.49.13-8.28c2-10.08,6.58-25.75,6.54-26.29,0-.29.87-3-3-4.45s-5.17.91-5.5.91-.58.83-.58.83,4.2-17.66-8.08-17.66c-7.67,0-18.33,8.42-23.57,16-3.29,1.79-10.41,5.66-17.91,9.79l-8.62,4.75c-.21-.21-.38-.42-.58-.63-14.91-15.91-42.44-27.16-41.27-48.52.42-7.79,3.12-28.24,52.93-53.07,40.82-20.33,73.45-14.75,79.07-2.33C202.9,99,177.37,132,135,136.74c-16.15,1.79-24.65-4.46-26.77-6.79s-2.54-2.59-3.37-2.13c-1.38.75-.5,2.92,0,4.21,1.24,3.29,6.45,9.12,15.32,12,7.79,2.54,26.73,4,49.64-4.92,25.73-9.91,45.76-37.53,39.89-60.65-6-23.49-44.94-31.19-81.77-18.11-22,7.78-45.68,20-62.76,36-20.28,19-23.52,35.53-22.19,42.45,4.75,24.53,38.56,40.53,52.09,52.36l-1.87,1c-6.79,3.37-32.57,16.87-39,31.11-7.29,16.16,1.21,27.74,6.79,29.33,17.4,4.83,35.23-3.88,44.8-18.16s8.42-32.95,4-41.45c0-.12-.12-.21-.16-.33,1.75-1,3.54-2.08,5.33-3.13,3.45-2,6.82-3.91,9.78-5.54a65.19,65.19,0,0,0-3.5,17.75c-.75,9.16,3,21,8,25.7a8.75,8.75,0,0,0,6.41,2.08c5.75,0,8.33-4.75,11.2-10.41,3.54-6.92,6.66-15,6.66-15S149.53,226,160.23,226c3.92,0,7.83-5,9.58-7.62v0s.09-.17.3-.5c.41-.63.62-1,.62-1v-.13c1.58-2.71,5-8.91,10.24-19.16,6.75-13.24,13.2-29.78,13.2-29.78a84.94,84.94,0,0,0,2.59,10.75c1.16,3.95,3.62,8.29,5.58,12.49-1.59,2.17-2.54,3.42-2.54,3.42a.09.09,0,0,0,0,.08c-1.25,1.67-2.67,3.46-4.13,5.21-5.32,6.33-11.66,13.58-12.49,15.66-1,2.46-.75,4.29,1.16,5.71,1.42,1.08,3.92,1.25,6.54,1a29.09,29.09,0,0,0,9.79-2.25,34.49,34.49,0,0,0,8.41-4.42,18.8,18.8,0,0,0,8.08-16.58,34.66,34.66,0,0,0-3-11.74c.46-.67,1-1.38,1.41-2.08a220.82,220.82,0,0,0,14.62-25.25,84.34,84.34,0,0,0,2.58,10.74c1,3.38,3,7.08,4.75,10.71-7.75,6.29-12.54,13.58-14.2,18.37-3.08,8.87-.67,12.87,3.87,13.78,2,.42,5-.54,7.12-1.45a33.53,33.53,0,0,0,9-4.63c5.2-3.83,10.24-9.2,9.91-16.49a31.12,31.12,0,0,0-2.25-9.75c6.54-2.75,15-4.25,25.86-3,23.19,2.71,27.73,17.2,26.86,23.24s-5.75,9.42-7.37,10.42-2.13,1.37-2,2.12c.2,1.08.95,1,2.33.79,1.91-.33,12.16-4.91,12.62-16.12.66-14.16-12.95-29.74-37.08-29.61ZM93.44,229.25c-7.66,8.37-18.41,11.54-23,8.87-5-2.88-3-15.2,6.45-24.13A123.39,123.39,0,0,1,94.94,200.5l4.75-2.88.5-.29c.37-.25.79-.45,1.2-.7,3.46,12.66.13,23.82-8,32.61Zm56-38.07c-2.66,6.54-8.28,23.2-11.7,22.32-2.91-.75-4.7-13.45-.58-25.95,2.08-6.29,6.5-13.78,9.12-16.7,4.21-4.71,8.83-6.21,9.91-4.33,1.46,2.46-5.08,20.57-6.75,24.66Zm46.24,22.07c-1.13.59-2.17,1-2.67.67s.46-1,.46-1,5.79-6.21,8.08-9c1.34-1.66,2.88-3.62,4.54-5.79,0,.21,0,.42,0,.67-.05,7.45-7.21,12.49-10.46,14.49Zm35.65-8.12c-.84-.58-.71-2.54,2.08-8.62a32.42,32.42,0,0,1,7.91-10.21,15,15,0,0,1,.79,4.5c0,9.37-6.74,12.87-10.78,14.33Z"/></g></g></svg>