<svg xmlns="http://www.w3.org/2000/svg" viewBox="0 0 342 405"><defs><style>.cls-1,.cls-2{fill:#fff;}.cls-2{font-size:57px;font-family:MyriadPro-Regular, Myriad Pro;}.cls-3{letter-spacing:-0.01em;}.cls-4{letter-spacing:-0.01em;}</style></defs><title>symfony</title><g id="Layer_2" data-name="Layer 2"><g id="Layer_1-2" data-name="Layer 1"><path d="M171,17A154,154,0,0,1,279.89,279.89,154,154,0,1,1,62.11,62.11,153,153,0,0,1,171,17m0-17A171,171,0,1,0,342,171,171,171,0,0,0,171,0Z"/><path class="cls-1" d="M171,40A131,131,0,1,0,302,171,131,131,0,0,0,171,40Zm70.64,75.82c-6,.22-10.24-3.41-10.44-8.91-.14-4.85,3.53-7.1,3.45-10-.12-3.46-5.37-3.6-6.8-3.52-21,.68-25.66,30.11-31.1,60.14,11.32,1.66,19.36-.38,23.84-3.29,6.34-4.09-1.76-8.3-.75-13,2.11-9.59,17.19-10,16.9,2.8-.19,9.43-13.69,22.08-41,18.86-5.68,31.44-9.69,60.74-30.74,85.42-15.32,18.2-30.85,21-37.81,21.27-13,.45-21.66-6.5-22-15.76-.3-9,7.63-13.88,12.84-14.05,11.56-.4,15.91,13.56,7.86,18-6.39,5.13.06,6.66,1.08,6.63,5.5-.19,9.16-2.91,11.72-4.75,12.67-10.57,17.55-29,23.95-62.52,4.33-26.23,9-41.2,9.63-43.31-8.94-6.74-14.3-15.09-26.33-18.34-8.25-2.24-13.27-.34-16.8,4.13-4.19,5.28-2.8,12.15,1.25,16.22l6.67,7.39c8.19,9.47,12.68,16.84,11,26.74-2.68,15.81-21.51,27.94-43.78,21.1-19-5.87-22.56-19.31-20.28-26.74,4-12.76,22.38-6.19,18.29,7.18-1.47,4.55-2.6,4.59-3.32,6.91-2.41,7.8,22.11,15,26.94-.74,2.36-7.67-2.8-11.46-11.75-21.05-15-16.77-8.45-34.59,1.56-42.08,27.89-20.79,53.1,9.25,58.41,13.63,19.63-57.57,53.1-55.7,54.11-55.74C241.57,88,251.62,94.06,252,103.6c.13,4.07-2.21,11.94-10.32,12.22Z"/><text class="cls-2" transform="translate(67.52 384.47)"><tspan class="cls-3">S</tspan><tspan x="27.65" y="0">ym</tspan><tspan class="cls-4" x="102.03" y="0">f</tspan><tspan x="117.93" y="0">o</tspan><tspan class="cls-4" x="149.23" y="0">n</tspan><tspan x="180.12" y="0">y</tspan></text></g></g></svg>