<svg xmlns="http://www.w3.org/2000/svg" xmlns:xlink="http://www.w3.org/1999/xlink" viewBox="0 0 342 405"><defs><style>.cls-1{font-size:57px;font-family:MyriadPro-Regular, Myriad Pro;}.cls-1,.cls-6{fill:#fff;}.cls-2{letter-spacing:-0.04em;}.cls-3{letter-spacing:0.01em;}.cls-4{letter-spacing:0em;}.cls-5{mask:url(#mask);}.cls-7{filter:url(#luminosity-noclip);}</style><filter id="luminosity-noclip" x="42" y="42" width="258" height="258" filterUnits="userSpaceOnUse" color-interpolation-filters="sRGB"><feFlood flood-color="#fff" result="bg"/><feBlend in="SourceGraphic" in2="bg"/></filter><mask id="mask" x="42" y="42" width="258" height="258" maskUnits="userSpaceOnUse"><g class="cls-7"><path d="M164.67,189H143.86V174.66h58.71V189H181.76v61.27H164.67Z"/><path d="M206.59,240.73,216.4,229c5.38,4.68,12.35,7.9,18.58,7.9,7.13,0,10.62-2.81,10.62-7.3,0-4.76-4.3-6.28-10.9-9l-9.83-4.19c-7.83-3.18-15.25-9.62-15.25-20.6,0-12.53,11.19-22.54,26.93-22.54a35,35,0,0,1,24.32,9.91L252.24,194c-5-3.82-9.72-5.92-15.69-5.92s-9.65,2.46-9.65,6.78c0,4.64,4.95,6.32,11.55,8.95l9.63,3.9c9.23,3.73,15,9.88,15,20.57,0,12.55-10.47,23.43-28.49,23.43A41.65,41.65,0,0,1,206.59,240.73Z"/></g></mask></defs><title>ts</title><g id="Layer_2" data-name="Layer 2"><g id="Layer_1-2" data-name="Layer 1"><path d="M171,17A154,154,0,0,1,279.89,279.89,154,154,0,1,1,62.11,62.11,153,153,0,0,1,171,17m0-17A171,171,0,1,0,342,171,171,171,0,0,0,171,0Z"/><text class="cls-1" transform="translate(45.32 384.47)"><tspan class="cls-2">T</tspan><tspan x="26.05" y="0">ype</tspan><tspan class="cls-3" x="113.88" y="0">S</tspan><tspan x="142.33" y="0">c</tspan><tspan class="cls-4" x="167.86" y="0">r</tspan><tspan x="186.73" y="0">ipt</tspan></text><g class="cls-5"><circle class="cls-6" cx="171" cy="171" r="129"/></g></g></g></svg>